<svg id="Layer_1" data-name="Layer 1" xmlns="http://www.w3.org/2000/svg" viewBox="0 0 595.28 250.61"><defs><style>.cls-1{fill:#66121c;}.cls-2{fill:#68131d;}.cls-3{fill:#6b141e;}.cls-4{fill:#6d151e;}.cls-5{fill:#6f151f;}.cls-6{fill:#721620;}.cls-7{fill:#741620;}.cls-8{fill:#771721;}.cls-9{fill:#791822;}.cls-10{fill:#7c1822;}.cls-11{fill:#7e1923;}.cls-12{fill:#811923;}.cls-13{fill:#841a24;}.cls-14{fill:#861a24;}.cls-15{fill:#891b25;}.cls-16{fill:#8c1b26;}.cls-17{fill:#8e1b26;}.cls-18{fill:#911c27;}.cls-19{fill:#941c27;}.cls-20{fill:#971d28;}.cls-21{fill:#991d28;}.cls-22{fill:#9c1d29;}.cls-23{fill:#9f1d29;}.cls-24{fill:#a21d29;}.cls-25{fill:#a51e2a;}.cls-26{fill:#a71e2a;}.cls-27{fill:#aa1e2b;}.cls-28{fill:#ad1e2b;}.cls-29{fill:#b01e2b;}.cls-30{fill:#b31e2c;}.cls-31{fill:#b61e2c;}.cls-32{fill:#b91e2c;}.cls-33{fill:#bb1e2d;}.cls-34{fill:#be1e2d;}.cls-35{fill:#e02948;}</style></defs><title>Untitled-1</title><path class="cls-1" d="M96.39,108H109v26.14L134.85,108h15.2L119.37,138.9l32.26,33.65H135.22L109,145.11v27.44H96.39Z"/><path class="cls-1" d="M159.69,108h46.53v11H172.3v15.11h32.81v11H172.3v16.31h34.38v11h-47Z"/><path class="cls-1" d="M219.28,108h12.24l32,45.23V108h12.24v64.51H263.49l-32-45.23v45.23H219.28Z"/><path class="cls-1" d="M290.37,108h45.51V119H303v16.68h31.79V146.6H303v26H290.37Z"/><path class="cls-1" d="M393.25,172.55H347.84V108h12.6v53.48h32.81Z"/><path class="cls-1" d="M404,172.55V108h12.6v64.51Z"/><path class="cls-1" d="M449.41,139l-21.5-31H443l14.55,21.41L471.66,108h14.92L464.89,138.9,489,172.55h-15.2l-17.05-24.1-16.41,24.1H425.5Z"/><polygon class="cls-2" points="95.8 107.06 108.44 107.06 108.44 133.28 134.38 107.06 149.62 107.06 118.85 138.02 151.2 171.76 134.75 171.76 108.44 144.25 108.44 171.76 95.8 171.76 95.8 107.06"/><polygon class="cls-2" points="159.29 107.06 205.96 107.06 205.96 118.12 171.93 118.12 171.93 133.28 204.84 133.28 204.84 144.34 171.93 144.34 171.93 160.7 206.42 160.7 206.42 171.76 159.29 171.76 159.29 107.06"/><polygon class="cls-2" points="219.06 107.06 231.33 107.06 263.41 152.43 263.41 107.06 275.68 107.06 275.68 171.76 263.41 171.76 231.33 126.4 231.33 171.76 219.06 171.76 219.06 107.06"/><polygon class="cls-2" points="290.37 107.06 336.01 107.06 336.01 118.03 303.01 118.03 303.01 134.76 334.89 134.76 334.89 145.73 303.01 145.73 303.01 171.76 290.37 171.76 290.37 107.06"/><polygon class="cls-2" points="393.55 171.76 348 171.76 348 107.06 360.64 107.06 360.64 160.7 393.55 160.7 393.55 171.76"/><rect class="cls-2" x="404.33" y="107.06" width="12.64" height="64.7"/><polygon class="cls-2" points="449.89 138.11 428.32 107.06 443.47 107.06 458.07 128.53 472.2 107.06 487.16 107.06 465.41 138.02 489.58 171.76 474.33 171.76 457.23 147.59 440.78 171.76 425.9 171.76 449.89 138.11"/><polygon class="cls-3" points="95.21 106.08 107.89 106.08 107.89 132.38 133.9 106.08 149.19 106.08 118.33 137.13 150.78 170.98 134.27 170.98 107.89 143.38 107.89 170.98 95.21 170.98 95.21 106.08"/><polygon class="cls-3" points="158.89 106.08 205.7 106.08 205.7 117.18 171.57 117.18 171.57 132.38 204.58 132.38 204.58 143.47 171.57 143.47 171.57 159.88 206.16 159.88 206.16 170.98 158.89 170.98 158.89 106.08"/><polygon class="cls-3" points="218.84 106.08 231.15 106.08 263.32 151.58 263.32 106.08 275.63 106.08 275.63 170.98 263.32 170.98 231.15 125.48 231.15 170.98 218.84 170.98 218.84 106.08"/><polygon class="cls-3" points="290.36 106.08 336.14 106.08 336.14 117.08 303.04 117.08 303.04 133.87 335.02 133.87 335.02 144.87 303.04 144.87 303.04 170.98 290.36 170.98 290.36 106.08"/><polygon class="cls-3" points="393.86 170.98 348.17 170.98 348.17 106.08 360.85 106.08 360.85 159.88 393.86 159.88 393.86 170.98"/><rect class="cls-3" x="404.67" y="106.08" width="12.68" height="64.9"/><polygon class="cls-3" points="450.36 137.22 428.73 106.08 443.93 106.08 458.56 127.62 472.74 106.08 487.75 106.08 465.93 137.13 490.17 170.98 474.88 170.98 457.73 146.74 441.22 170.98 426.3 170.98 450.36 137.22"/><polygon class="cls-4" points="94.61 105.1 107.33 105.1 107.33 131.47 133.43 105.1 148.76 105.1 117.81 136.25 150.35 170.19 133.8 170.19 107.33 142.51 107.33 170.19 94.61 170.19 94.61 105.1"/><polygon class="cls-4" points="158.49 105.1 205.44 105.1 205.44 116.23 171.21 116.23 171.21 131.47 204.31 131.47 204.31 142.6 171.21 142.6 171.21 159.06 205.9 159.06 205.9 170.19 158.49 170.19 158.49 105.1"/><polygon class="cls-4" points="218.62 105.1 230.97 105.1 263.23 150.74 263.23 105.1 275.57 105.1 275.57 170.19 263.23 170.19 230.97 124.56 230.97 170.19 218.62 170.19 218.62 105.1"/><polygon class="cls-4" points="290.35 105.1 336.27 105.1 336.27 116.14 303.07 116.14 303.07 132.97 335.15 132.97 335.15 144.01 303.07 144.01 303.07 170.19 290.35 170.19 290.35 105.1"/><polygon class="cls-4" points="394.16 170.19 348.33 170.19 348.33 105.1 361.05 105.1 361.05 159.06 394.16 159.06 394.16 170.19"/><rect class="cls-4" x="405.01" y="105.1" width="12.72" height="65.09"/><polygon class="cls-4" points="450.83 136.34 429.13 105.1 444.38 105.1 459.06 126.71 473.27 105.1 488.33 105.1 466.45 136.25 490.76 170.19 475.43 170.19 458.22 145.88 441.67 170.19 426.7 170.19 450.83 136.34"/><polygon class="cls-5" points="94.02 104.12 106.78 104.12 106.78 130.57 132.95 104.12 148.33 104.12 117.28 135.36 149.93 169.41 133.32 169.41 106.78 141.64 106.78 169.41 94.02 169.41 94.02 104.12"/><polygon class="cls-5" points="158.09 104.12 205.18 104.12 205.18 115.28 170.84 115.28 170.84 130.57 204.05 130.57 204.05 141.74 170.84 141.74 170.84 158.25 205.64 158.25 205.64 169.41 158.09 169.41 158.09 104.12"/><polygon class="cls-5" points="218.4 104.12 230.78 104.12 263.14 149.9 263.14 104.12 275.52 104.12 275.52 169.41 263.14 169.41 230.78 123.63 230.78 169.41 218.4 169.41 218.4 104.12"/><polygon class="cls-5" points="290.34 104.12 336.4 104.12 336.4 115.19 303.1 115.19 303.1 132.07 335.27 132.07 335.27 143.14 303.1 143.14 303.1 169.41 290.34 169.41 290.34 104.12"/><polygon class="cls-5" points="394.46 169.41 348.5 169.41 348.5 104.12 361.26 104.12 361.26 158.25 394.46 158.25 394.46 169.41"/><rect class="cls-5" x="405.34" y="104.12" width="12.76" height="65.28"/><polygon class="cls-5" points="451.3 135.45 429.54 104.12 444.83 104.12 459.56 125.79 473.81 104.12 488.92 104.12 466.97 135.36 491.36 169.41 475.97 169.41 458.71 145.02 442.11 169.41 427.1 169.41 451.3 135.45"/><polygon class="cls-6" points="93.43 103.14 106.23 103.14 106.23 129.67 132.47 103.14 147.9 103.14 116.76 134.47 149.5 168.62 132.85 168.62 106.23 140.78 106.23 168.62 93.43 168.62 93.43 103.14"/><polygon class="cls-6" points="157.69 103.14 204.91 103.14 204.91 114.34 170.48 114.34 170.48 129.67 203.79 129.67 203.79 140.87 170.48 140.87 170.48 157.43 205.38 157.43 205.38 168.62 157.69 168.62 157.69 103.14"/><polygon class="cls-6" points="218.18 103.14 230.6 103.14 263.05 149.05 263.05 103.14 275.47 103.14 275.47 168.62 263.05 168.62 230.6 122.71 230.6 168.62 218.18 168.62 218.18 103.14"/><polygon class="cls-6" points="290.34 103.14 336.53 103.14 336.53 114.25 303.13 114.25 303.13 131.18 335.4 131.18 335.4 142.28 303.13 142.28 303.13 168.62 290.34 168.62 290.34 103.14"/><polygon class="cls-6" points="394.76 168.62 348.67 168.62 348.67 103.14 361.46 103.14 361.46 157.43 394.76 157.43 394.76 168.62"/><rect class="cls-6" x="405.68" y="103.14" width="12.79" height="65.48"/><polygon class="cls-6" points="451.78 134.57 429.95 103.14 445.28 103.14 460.05 124.88 474.35 103.14 489.5 103.14 467.49 134.47 491.95 168.62 476.52 168.62 459.21 144.16 442.56 168.62 427.5 168.62 451.78 134.57"/><polygon class="cls-7" points="92.84 102.17 105.67 102.17 105.67 128.77 132 102.17 147.47 102.17 116.24 133.59 149.08 167.84 132.38 167.84 105.67 139.91 105.67 167.84 92.84 167.84 92.84 102.17"/><polygon class="cls-7" points="157.29 102.17 204.65 102.17 204.65 113.39 170.12 113.39 170.12 128.77 203.52 128.77 203.52 140 170.12 140 170.12 156.61 205.13 156.61 205.13 167.84 157.29 167.84 157.29 102.17"/><polygon class="cls-7" points="217.96 102.17 230.41 102.17 262.97 148.21 262.97 102.17 275.42 102.17 275.42 167.84 262.97 167.84 230.41 121.79 230.41 167.84 217.96 167.84 217.96 102.17"/><polygon class="cls-7" points="290.33 102.17 336.66 102.17 336.66 113.3 303.16 113.3 303.16 130.28 335.53 130.28 335.53 141.42 303.16 141.42 303.16 167.84 290.33 167.84 290.33 102.17"/><polygon class="cls-7" points="395.07 167.84 348.83 167.84 348.83 102.17 361.67 102.17 361.67 156.61 395.07 156.61 395.07 167.84"/><rect class="cls-7" x="406.01" y="102.16" width="12.83" height="65.67"/><polygon class="cls-7" points="452.25 133.68 430.36 102.17 445.74 102.17 460.55 123.96 474.89 102.17 490.08 102.17 468 133.59 492.54 167.84 477.06 167.84 459.7 143.3 443 167.84 427.9 167.84 452.25 133.68"/><polygon class="cls-8" points="92.25 101.19 105.12 101.19 105.12 127.87 131.52 101.19 147.04 101.19 115.72 132.7 148.65 167.05 131.9 167.05 105.12 139.04 105.12 167.05 92.25 167.05 92.25 101.19"/><polygon class="cls-8" points="156.89 101.19 204.39 101.19 204.39 112.45 169.76 112.45 169.76 127.87 203.26 127.87 203.26 139.13 169.76 139.13 169.76 155.79 204.87 155.79 204.87 167.05 156.89 167.05 156.89 101.19"/><polygon class="cls-8" points="217.74 101.19 230.23 101.19 262.88 147.37 262.88 101.19 275.37 101.19 275.37 167.05 262.88 167.05 230.23 120.87 230.23 167.05 217.74 167.05 217.74 101.19"/><polygon class="cls-8" points="290.32 101.19 336.79 101.19 336.79 112.35 303.19 112.35 303.19 129.39 335.65 129.39 335.65 140.55 303.19 140.55 303.19 167.05 290.32 167.05 290.32 101.19"/><polygon class="cls-8" points="395.37 167.05 349 167.05 349 101.19 361.87 101.19 361.87 155.79 395.37 155.79 395.37 167.05"/><rect class="cls-8" x="406.35" y="101.19" width="12.87" height="65.87"/><polygon class="cls-8" points="452.72 132.79 430.76 101.19 446.19 101.19 461.05 123.05 475.43 101.19 490.67 101.19 468.52 132.7 493.13 167.05 477.61 167.05 460.2 142.45 443.44 167.05 428.3 167.05 452.72 132.79"/><polygon class="cls-9" points="91.66 100.21 104.57 100.21 104.57 126.97 131.05 100.21 146.61 100.21 115.2 131.81 148.23 166.27 131.43 166.27 104.57 138.17 104.57 166.27 91.66 166.27 91.66 100.21"/><polygon class="cls-9" points="156.49 100.21 204.13 100.21 204.13 111.5 169.39 111.5 169.39 126.97 202.99 126.97 202.99 138.27 169.39 138.27 169.39 154.97 204.61 154.97 204.61 166.27 156.49 166.27 156.49 100.21"/><polygon class="cls-9" points="217.51 100.21 230.04 100.21 262.79 146.53 262.79 100.21 275.32 100.21 275.32 166.27 262.79 166.27 230.04 119.95 230.04 166.27 217.51 166.27 217.51 100.21"/><polygon class="cls-9" points="290.32 100.21 336.92 100.21 336.92 111.41 303.23 111.41 303.23 128.49 335.78 128.49 335.78 139.69 303.23 139.69 303.23 166.27 290.32 166.27 290.32 100.21"/><polygon class="cls-9" points="395.67 166.27 349.17 166.27 349.17 100.21 362.07 100.21 362.07 154.97 395.67 154.97 395.67 166.27"/><rect class="cls-9" x="406.68" y="100.21" width="12.91" height="66.06"/><polygon class="cls-9" points="453.19 131.91 431.17 100.21 446.64 100.21 461.55 122.13 475.97 100.21 491.25 100.21 469.04 131.81 493.72 166.27 478.15 166.27 460.69 141.59 443.89 166.27 428.7 166.27 453.19 131.91"/><polygon class="cls-10" points="91.06 99.23 104.01 99.23 104.01 126.07 130.57 99.23 146.18 99.23 114.67 130.93 147.8 165.48 130.95 165.48 104.01 137.3 104.01 165.48 91.06 165.48 91.06 99.23"/><polygon class="cls-10" points="156.08 99.23 203.87 99.23 203.87 110.55 169.03 110.55 169.03 126.07 202.73 126.07 202.73 137.4 169.03 137.4 169.03 154.15 204.35 154.15 204.35 165.48 156.08 165.48 156.08 99.23"/><polygon class="cls-10" points="217.29 99.23 229.86 99.23 262.7 145.68 262.7 99.23 275.27 99.23 275.27 165.48 262.7 165.48 229.86 119.03 229.86 165.48 217.29 165.48 217.29 99.23"/><polygon class="cls-10" points="290.31 99.23 337.05 99.23 337.05 110.46 303.26 110.46 303.26 127.59 335.91 127.59 335.91 138.83 303.26 138.83 303.26 165.48 290.31 165.48 290.31 99.23"/><polygon class="cls-10" points="395.98 165.48 349.33 165.48 349.33 99.23 362.28 99.23 362.28 154.15 395.98 154.15 395.98 165.48"/><rect class="cls-10" x="407.02" y="99.23" width="12.95" height="66.26"/><polygon class="cls-10" points="453.67 131.02 431.58 99.23 447.1 99.23 462.04 121.22 476.51 99.23 491.84 99.23 469.56 130.93 494.31 165.48 478.7 165.48 461.19 140.73 444.33 165.48 429.1 165.48 453.67 131.02"/><polygon class="cls-11" points="90.47 98.25 103.46 98.25 103.46 125.17 130.1 98.25 145.75 98.25 114.15 130.04 147.38 164.7 130.48 164.7 103.46 136.44 103.46 164.7 90.47 164.7 90.47 98.25"/><polygon class="cls-11" points="155.68 98.25 203.61 98.25 203.61 109.61 168.67 109.61 168.67 125.17 202.47 125.17 202.47 136.53 168.67 136.53 168.67 153.34 204.09 153.34 204.09 164.7 155.68 164.7 155.68 98.25"/><polygon class="cls-11" points="217.07 98.25 229.68 98.25 262.61 144.84 262.61 98.25 275.22 98.25 275.22 164.7 262.61 164.7 229.68 118.11 229.68 164.7 217.07 164.7 217.07 98.25"/><polygon class="cls-11" points="290.3 98.25 337.18 98.25 337.18 109.51 303.29 109.51 303.29 126.7 336.04 126.7 336.04 137.96 303.29 137.96 303.29 164.7 290.3 164.7 290.3 98.25"/><polygon class="cls-11" points="396.28 164.7 349.5 164.7 349.5 98.25 362.48 98.25 362.48 153.34 396.28 153.34 396.28 164.7"/><rect class="cls-11" x="407.35" y="98.25" width="12.98" height="66.45"/><polygon class="cls-11" points="454.14 130.13 431.99 98.25 447.55 98.25 462.54 120.3 477.05 98.25 492.42 98.25 470.08 130.04 494.9 164.7 479.25 164.7 461.68 139.87 444.78 164.7 429.5 164.7 454.14 130.13"/><polygon class="cls-12" points="89.88 97.27 102.91 97.27 102.91 124.27 129.62 97.27 145.32 97.27 113.63 129.15 146.95 163.91 130 163.91 102.91 135.57 102.91 163.91 89.88 163.91 89.88 97.27"/><polygon class="cls-12" points="155.28 97.27 203.35 97.27 203.35 108.66 168.31 108.66 168.31 124.27 202.2 124.27 202.2 135.66 168.31 135.66 168.31 152.52 203.83 152.52 203.83 163.91 155.28 163.91 155.28 97.27"/><polygon class="cls-12" points="216.85 97.27 229.49 97.27 262.53 144 262.53 97.27 275.17 97.27 275.17 163.91 262.53 163.91 229.49 117.18 229.49 163.91 216.85 163.91 216.85 97.27"/><polygon class="cls-12" points="290.3 97.27 337.31 97.27 337.31 108.57 303.32 108.57 303.32 125.8 336.16 125.8 336.16 137.1 303.32 137.1 303.32 163.91 290.3 163.91 290.3 97.27"/><polygon class="cls-12" points="396.58 163.91 349.66 163.91 349.66 97.27 362.69 97.27 362.69 152.52 396.58 152.52 396.58 163.91"/><rect class="cls-12" x="407.69" y="97.27" width="13.02" height="66.64"/><polygon class="cls-12" points="454.61 129.25 432.39 97.27 448 97.27 463.04 119.39 477.59 97.27 493.01 97.27 470.6 129.15 495.5 163.91 479.79 163.91 462.17 139.02 445.23 163.91 429.9 163.91 454.61 129.25"/><polygon class="cls-13" points="89.29 96.29 102.35 96.29 102.35 123.37 129.15 96.29 144.89 96.29 113.11 128.27 146.53 163.13 129.53 163.13 102.35 134.7 102.35 163.13 89.29 163.13 89.29 96.29"/><polygon class="cls-13" points="154.88 96.29 203.09 96.29 203.09 107.72 167.94 107.72 167.94 123.37 201.94 123.37 201.94 134.8 167.94 134.8 167.94 151.7 203.57 151.7 203.57 163.13 154.88 163.13 154.88 96.29"/><polygon class="cls-13" points="216.63 96.29 229.31 96.29 262.44 143.15 262.44 96.29 275.12 96.29 275.12 163.13 262.44 163.13 229.31 116.26 229.31 163.13 216.63 163.13 216.63 96.29"/><polygon class="cls-13" points="290.29 96.29 337.44 96.29 337.44 107.62 303.35 107.62 303.35 124.91 336.29 124.91 336.29 136.24 303.35 136.24 303.35 163.13 290.29 163.13 290.29 96.29"/><polygon class="cls-13" points="396.89 163.13 349.83 163.13 349.83 96.29 362.89 96.29 362.89 151.7 396.89 151.7 396.89 163.13"/><rect class="cls-13" x="408.02" y="96.29" width="13.06" height="66.84"/><polygon class="cls-13" points="455.08 128.36 432.8 96.29 448.45 96.29 463.53 118.47 478.13 96.29 493.59 96.29 471.12 128.27 496.09 163.13 480.34 163.13 462.67 138.16 445.67 163.13 430.3 163.13 455.08 128.36"/><polygon class="cls-14" points="88.7 95.31 101.8 95.31 101.8 122.47 128.67 95.31 144.46 95.31 112.58 127.38 146.1 162.34 129.05 162.34 101.8 133.83 101.8 162.34 88.7 162.34 88.7 95.31"/><polygon class="cls-14" points="154.48 95.31 202.83 95.31 202.83 106.77 167.58 106.77 167.58 122.47 201.67 122.47 201.67 133.93 167.58 133.93 167.58 150.88 203.31 150.88 203.31 162.34 154.48 162.34 154.48 95.31"/><polygon class="cls-14" points="216.41 95.31 229.12 95.31 262.35 142.31 262.35 95.31 275.06 95.31 275.06 162.34 262.35 162.34 229.12 115.34 229.12 162.34 216.41 162.34 216.41 95.31"/><polygon class="cls-14" points="290.28 95.31 337.57 95.31 337.57 106.67 303.38 106.67 303.38 124.01 336.42 124.01 336.42 135.38 303.38 135.38 303.38 162.34 290.28 162.34 290.28 95.31"/><polygon class="cls-14" points="397.19 162.34 350 162.34 350 95.31 363.09 95.31 363.09 150.88 397.19 150.88 397.19 162.34"/><rect class="cls-14" x="408.36" y="95.31" width="13.1" height="67.03"/><polygon class="cls-14" points="455.55 127.48 433.21 95.31 448.91 95.31 464.03 117.56 478.67 95.31 494.17 95.31 471.64 127.38 496.68 162.34 480.88 162.34 463.16 137.3 446.12 162.34 430.7 162.34 455.55 127.48"/><polygon class="cls-15" points="88.11 94.33 101.25 94.33 101.25 121.57 128.19 94.33 144.03 94.33 112.06 126.49 145.68 161.56 128.58 161.56 101.25 132.97 101.25 161.56 88.11 161.56 88.11 94.33"/><polygon class="cls-15" points="154.08 94.33 202.57 94.33 202.57 105.82 167.22 105.82 167.22 121.57 201.41 121.57 201.41 133.06 167.22 133.06 167.22 150.06 203.05 150.06 203.05 161.56 154.08 161.56 154.08 94.33"/><polygon class="cls-15" points="216.19 94.33 228.94 94.33 262.26 141.47 262.26 94.33 275.01 94.33 275.01 161.56 262.26 161.56 228.94 114.42 228.94 161.56 216.19 161.56 216.19 94.33"/><polygon class="cls-15" points="290.27 94.33 337.7 94.33 337.7 105.73 303.41 105.73 303.41 123.11 336.54 123.11 336.54 134.51 303.41 134.51 303.41 161.56 290.27 161.56 290.27 94.33"/><polygon class="cls-15" points="397.49 161.56 350.16 161.56 350.16 94.33 363.3 94.33 363.3 150.06 397.49 150.06 397.49 161.56"/><rect class="cls-15" x="408.7" y="94.33" width="13.14" height="67.23"/><polygon class="cls-15" points="456.03 126.59 433.62 94.33 449.36 94.33 464.53 116.64 479.21 94.33 494.76 94.33 472.16 126.49 497.27 161.56 481.43 161.56 463.66 136.44 446.56 161.56 431.11 161.56 456.03 126.59"/><polygon class="cls-16" points="87.52 93.35 100.69 93.35 100.69 120.67 127.72 93.35 143.6 93.35 111.54 125.61 145.25 160.77 128.1 160.77 100.69 132.1 100.69 160.77 87.52 160.77 87.52 93.35"/><polygon class="cls-16" points="153.68 93.35 202.31 93.35 202.31 104.88 166.85 104.88 166.85 120.67 201.15 120.67 201.15 132.19 166.85 132.19 166.85 149.24 202.79 149.24 202.79 160.77 153.68 160.77 153.68 93.35"/><polygon class="cls-16" points="215.97 93.35 228.75 93.35 262.18 140.62 262.18 93.35 274.96 93.35 274.96 160.77 262.18 160.77 228.75 113.5 228.75 160.77 215.97 160.77 215.97 93.35"/><polygon class="cls-16" points="290.27 93.35 337.83 93.35 337.83 104.78 303.44 104.78 303.44 122.22 336.67 122.22 336.67 133.65 303.44 133.65 303.44 160.77 290.27 160.77 290.27 93.35"/><polygon class="cls-16" points="397.8 160.77 350.33 160.77 350.33 93.35 363.5 93.35 363.5 149.24 397.8 149.24 397.8 160.77"/><rect class="cls-16" x="409.03" y="93.35" width="13.17" height="67.42"/><polygon class="cls-16" points="456.5 125.7 434.02 93.35 449.81 93.35 465.02 115.73 479.75 93.35 495.34 93.35 472.68 125.61 497.86 160.77 481.98 160.77 464.15 135.59 447 160.77 431.5 160.77 456.5 125.7"/><polygon class="cls-17" points="86.92 92.37 100.14 92.37 100.14 119.77 127.24 92.37 143.18 92.37 111.02 124.72 144.83 159.99 127.63 159.99 100.14 131.23 100.14 159.99 86.92 159.99 86.92 92.37"/><polygon class="cls-17" points="153.28 92.37 202.05 92.37 202.05 103.93 166.49 103.93 166.49 119.77 200.88 119.77 200.88 131.33 166.49 131.33 166.49 148.43 202.53 148.43 202.53 159.99 153.28 159.99 153.28 92.37"/><polygon class="cls-17" points="215.75 92.37 228.57 92.37 262.09 139.78 262.09 92.37 274.91 92.37 274.91 159.99 262.09 159.99 228.57 112.58 228.57 159.99 215.75 159.99 215.75 92.37"/><polygon class="cls-17" points="290.26 92.37 337.96 92.37 337.96 103.83 303.47 103.83 303.47 121.32 336.8 121.32 336.8 132.78 303.47 132.78 303.47 159.99 290.26 159.99 290.26 92.37"/><polygon class="cls-17" points="398.1 159.99 350.49 159.99 350.49 92.37 363.71 92.37 363.71 148.43 398.1 148.43 398.1 159.99"/><rect class="cls-17" x="409.37" y="92.37" width="13.21" height="67.62"/><polygon class="cls-17" points="456.97 124.82 434.43 92.37 450.27 92.37 465.52 114.81 480.29 92.37 495.93 92.37 473.19 124.72 498.45 159.99 482.52 159.99 464.64 134.73 447.45 159.99 431.9 159.99 456.97 124.82"/><polygon class="cls-18" points="86.33 91.39 99.58 91.39 99.58 118.87 126.77 91.39 142.75 91.39 110.5 123.83 144.4 159.2 127.16 159.2 99.58 130.36 99.58 159.2 86.33 159.2 86.33 91.39"/><polygon class="cls-18" points="152.88 91.39 201.79 91.39 201.79 102.98 166.13 102.98 166.13 118.87 200.62 118.87 200.62 130.46 166.13 130.46 166.13 147.61 202.28 147.61 202.28 159.2 152.88 159.2 152.88 91.39"/><polygon class="cls-18" points="215.53 91.39 228.38 91.39 262 138.94 262 91.39 274.86 91.39 274.86 159.2 262 159.2 228.38 111.66 228.38 159.2 215.53 159.2 215.53 91.39"/><polygon class="cls-18" points="290.25 91.39 338.09 91.39 338.09 102.89 303.5 102.89 303.5 120.42 336.92 120.42 336.92 131.92 303.5 131.92 303.5 159.2 290.25 159.2 290.25 91.39"/><polygon class="cls-18" points="398.4 159.2 350.66 159.2 350.66 91.39 363.91 91.39 363.91 147.61 398.4 147.61 398.4 159.2"/><rect class="cls-18" x="409.7" y="91.39" width="13.25" height="67.81"/><polygon class="cls-18" points="457.44 123.93 434.84 91.39 450.72 91.39 466.02 113.9 480.82 91.39 496.51 91.39 473.71 123.83 499.04 159.2 483.07 159.2 465.14 133.87 447.89 159.2 432.31 159.2 457.44 123.93"/><polygon class="cls-19" points="85.74 90.41 99.03 90.41 99.03 117.97 126.29 90.41 142.31 90.41 109.97 122.95 143.98 158.42 126.68 158.42 99.03 129.5 99.03 158.42 85.74 158.42 85.74 90.41"/><polygon class="cls-19" points="152.48 90.41 201.53 90.41 201.53 102.04 165.77 102.04 165.77 117.97 200.35 117.97 200.35 129.59 165.77 129.59 165.77 146.79 202.02 146.79 202.02 158.42 152.48 158.42 152.48 90.41"/><polygon class="cls-19" points="215.3 90.41 228.2 90.41 261.91 138.09 261.91 90.41 274.81 90.41 274.81 158.42 261.91 158.42 228.2 110.73 228.2 158.42 215.3 158.42 215.3 90.41"/><polygon class="cls-19" points="290.25 90.41 338.22 90.41 338.22 101.94 303.54 101.94 303.54 119.53 337.05 119.53 337.05 131.06 303.54 131.06 303.54 158.42 290.25 158.42 290.25 90.41"/><polygon class="cls-19" points="398.7 158.42 350.83 158.42 350.83 90.41 364.12 90.41 364.12 146.79 398.7 146.79 398.7 158.42"/><rect class="cls-19" x="410.04" y="90.41" width="13.29" height="68.01"/><polygon class="cls-19" points="457.92 123.05 435.25 90.41 451.17 90.41 466.51 112.98 481.36 90.41 497.1 90.41 474.23 122.95 499.64 158.42 483.61 158.42 465.63 133.01 448.34 158.42 432.7 158.42 457.92 123.05"/><polygon class="cls-20" points="85.15 89.43 98.48 89.43 98.48 117.06 125.82 89.43 141.89 89.43 109.45 122.06 143.55 157.63 126.21 157.63 98.48 128.63 98.48 157.63 85.15 157.63 85.15 89.43"/><polygon class="cls-20" points="152.08 89.43 201.27 89.43 201.27 101.09 165.4 101.09 165.4 117.06 200.09 117.06 200.09 128.72 165.4 128.72 165.4 145.97 201.76 145.97 201.76 157.63 152.08 157.63 152.08 89.43"/><polygon class="cls-20" points="215.08 89.43 228.02 89.43 261.82 137.25 261.82 89.43 274.76 89.43 274.76 157.63 261.82 157.63 228.02 109.81 228.02 157.63 215.08 157.63 215.08 89.43"/><polygon class="cls-20" points="290.24 89.43 338.35 89.43 338.35 101 303.57 101 303.57 118.63 337.18 118.63 337.18 130.19 303.57 130.19 303.57 157.63 290.24 157.63 290.24 89.43"/><polygon class="cls-20" points="399.01 157.63 350.99 157.63 350.99 89.43 364.32 89.43 364.32 145.97 399.01 145.97 399.01 157.63"/><rect class="cls-20" x="410.37" y="89.43" width="13.33" height="68.2"/><polygon class="cls-20" points="458.39 122.16 435.65 89.43 451.63 89.43 467.01 112.07 481.9 89.43 497.68 89.43 474.75 122.06 500.23 157.63 484.16 157.63 466.13 132.16 448.78 157.63 433.11 157.63 458.39 122.16"/><polygon class="cls-21" points="84.56 88.45 97.92 88.45 97.92 116.16 125.34 88.45 141.46 88.45 108.93 121.17 143.13 156.85 125.73 156.85 97.92 127.76 97.92 156.85 84.56 156.85 84.56 88.45"/><polygon class="cls-21" points="151.68 88.45 201.01 88.45 201.01 100.15 165.04 100.15 165.04 116.16 199.83 116.16 199.83 127.86 165.04 127.86 165.04 145.15 201.5 145.15 201.5 156.85 151.68 156.85 151.68 88.45"/><polygon class="cls-21" points="214.86 88.45 227.83 88.45 261.74 136.41 261.74 88.45 274.71 88.45 274.71 156.85 261.74 156.85 227.83 108.89 227.83 156.85 214.86 156.85 214.86 88.45"/><polygon class="cls-21" points="290.23 88.45 338.48 88.45 338.48 100.05 303.6 100.05 303.6 117.74 337.3 117.74 337.3 129.33 303.6 129.33 303.6 156.85 290.23 156.85 290.23 88.45"/><polygon class="cls-21" points="399.31 156.85 351.16 156.85 351.16 88.45 364.52 88.45 364.52 145.15 399.31 145.15 399.31 156.85"/><rect class="cls-21" x="410.71" y="88.45" width="13.36" height="68.39"/><polygon class="cls-21" points="458.86 121.27 436.06 88.45 452.08 88.45 467.51 111.15 482.44 88.45 498.26 88.45 475.27 121.17 500.82 156.85 484.7 156.85 466.62 131.3 449.23 156.85 433.51 156.85 458.86 121.27"/><polygon class="cls-22" points="83.97 87.47 97.37 87.47 97.37 115.26 124.86 87.47 141.03 87.47 108.41 120.29 142.7 156.06 125.26 156.06 97.37 126.89 97.37 156.06 83.97 156.06 83.97 87.47"/><polygon class="cls-22" points="151.28 87.47 200.75 87.47 200.75 99.2 164.68 99.2 164.68 115.26 199.56 115.26 199.56 126.99 164.68 126.99 164.68 144.33 201.24 144.33 201.24 156.06 151.28 156.06 151.28 87.47"/><polygon class="cls-22" points="214.64 87.47 227.65 87.47 261.65 135.56 261.65 87.47 274.65 87.47 274.65 156.06 261.65 156.06 227.65 107.97 227.65 156.06 214.64 156.06 214.64 87.47"/><polygon class="cls-22" points="290.23 87.47 338.61 87.47 338.61 99.1 303.63 99.1 303.63 116.84 337.43 116.84 337.43 128.47 303.63 128.47 303.63 156.06 290.23 156.06 290.23 87.47"/><polygon class="cls-22" points="399.61 156.06 351.32 156.06 351.32 87.47 364.73 87.47 364.73 144.33 399.61 144.33 399.61 156.06"/><rect class="cls-22" x="411.04" y="87.47" width="13.4" height="68.59"/><polygon class="cls-22" points="459.33 120.39 436.47 87.47 452.53 87.47 468 110.24 482.98 87.47 498.85 87.47 475.79 120.29 501.41 156.06 485.25 156.06 467.12 130.44 449.67 156.06 433.91 156.06 459.33 120.39"/><polygon class="cls-23" points="83.38 86.49 96.82 86.49 96.82 114.36 124.39 86.49 140.6 86.49 107.89 119.4 142.28 155.28 124.78 155.28 96.82 126.02 96.82 155.28 83.38 155.28 83.38 86.49"/><polygon class="cls-23" points="150.87 86.49 200.49 86.49 200.49 98.25 164.31 98.25 164.31 114.36 199.3 114.36 199.3 126.12 164.31 126.12 164.31 143.52 200.98 143.52 200.98 155.28 150.87 155.28 150.87 86.49"/><polygon class="cls-23" points="214.42 86.49 227.46 86.49 261.56 134.72 261.56 86.49 274.6 86.49 274.6 155.28 261.56 155.28 227.46 107.05 227.46 155.28 214.42 155.28 214.42 86.49"/><polygon class="cls-23" points="290.22 86.49 338.74 86.49 338.74 98.16 303.66 98.16 303.66 115.94 337.56 115.94 337.56 127.61 303.66 127.61 303.66 155.28 290.22 155.28 290.22 86.49"/><polygon class="cls-23" points="399.92 155.28 351.49 155.28 351.49 86.49 364.93 86.49 364.93 143.52 399.92 143.52 399.92 155.28"/><rect class="cls-23" x="411.38" y="86.49" width="13.44" height="68.78"/><polygon class="cls-23" points="459.8 119.5 436.88 86.49 452.98 86.49 468.5 109.32 483.52 86.49 499.43 86.49 476.31 119.4 502 155.28 485.8 155.28 467.61 129.58 450.12 155.28 434.31 155.28 459.8 119.5"/><polygon class="cls-24" points="82.78 85.51 96.26 85.51 96.26 113.46 123.91 85.51 140.17 85.51 107.36 118.52 141.85 154.49 124.31 154.49 96.26 125.16 96.26 154.49 82.78 154.49 82.78 85.51"/><polygon class="cls-24" points="150.47 85.51 200.22 85.51 200.22 97.31 163.95 97.31 163.95 113.46 199.03 113.46 199.03 125.25 163.95 125.25 163.95 142.7 200.72 142.7 200.72 154.49 150.47 154.49 150.47 85.51"/><polygon class="cls-24" points="214.2 85.51 227.28 85.51 261.47 133.88 261.47 85.51 274.55 85.51 274.55 154.49 261.47 154.49 227.28 106.13 227.28 154.49 214.2 154.49 214.2 85.51"/><polygon class="cls-24" points="290.21 85.51 338.87 85.51 338.87 97.21 303.69 97.21 303.69 115.05 337.68 115.05 337.68 126.74 303.69 126.74 303.69 154.49 290.21 154.49 290.21 85.51"/><polygon class="cls-24" points="400.22 154.49 351.66 154.49 351.66 85.51 365.14 85.51 365.14 142.7 400.22 142.7 400.22 154.49"/><rect class="cls-24" x="411.71" y="85.51" width="13.48" height="68.98"/><polygon class="cls-24" points="460.28 118.61 437.28 85.51 453.44 85.51 469 108.41 484.06 85.51 500.02 85.51 476.83 118.52 502.59 154.49 486.34 154.49 468.11 128.72 450.56 154.49 434.71 154.49 460.28 118.61"/><polygon class="cls-25" points="82.19 84.53 95.71 84.53 95.71 112.56 123.44 84.53 139.74 84.53 106.84 117.63 141.43 153.71 123.83 153.71 95.71 124.29 95.71 153.71 82.19 153.71 82.19 84.53"/><polygon class="cls-25" points="150.07 84.53 199.96 84.53 199.96 96.36 163.59 96.36 163.59 112.56 198.77 112.56 198.77 124.39 163.59 124.39 163.59 141.88 200.46 141.88 200.46 153.71 150.07 153.71 150.07 84.53"/><polygon class="cls-25" points="213.98 84.53 227.09 84.53 261.38 133.03 261.38 84.53 274.5 84.53 274.5 153.71 261.38 153.71 227.09 105.21 227.09 153.71 213.98 153.71 213.98 84.53"/><polygon class="cls-25" points="290.2 84.53 339 84.53 339 96.26 303.72 96.26 303.72 114.15 337.81 114.15 337.81 125.88 303.72 125.88 303.72 153.71 290.2 153.71 290.2 84.53"/><polygon class="cls-25" points="400.52 153.71 351.82 153.71 351.82 84.53 365.34 84.53 365.34 141.88 400.52 141.88 400.52 153.71"/><rect class="cls-25" x="412.05" y="84.53" width="13.52" height="69.17"/><polygon class="cls-25" points="460.75 117.73 437.69 84.53 453.89 84.53 469.49 107.49 484.6 84.53 500.6 84.53 477.35 117.63 503.19 153.71 486.89 153.71 468.6 127.87 451.01 153.71 435.11 153.71 460.75 117.73"/><polygon class="cls-26" points="81.6 83.56 95.16 83.56 95.16 111.66 122.96 83.56 139.31 83.56 106.32 116.74 141 152.92 123.36 152.92 95.16 123.42 95.16 152.92 81.6 152.92 81.6 83.56"/><polygon class="cls-26" points="149.67 83.56 199.7 83.56 199.7 95.42 163.23 95.42 163.23 111.66 198.51 111.66 198.51 123.52 163.23 123.52 163.23 141.06 200.2 141.06 200.2 152.92 149.67 152.92 149.67 83.56"/><polygon class="cls-26" points="213.75 83.56 226.91 83.56 261.3 132.19 261.3 83.56 274.45 83.56 274.45 152.92 261.3 152.92 226.91 104.28 226.91 152.92 213.75 152.92 213.75 83.56"/><polygon class="cls-26" points="290.2 83.56 339.13 83.56 339.13 95.32 303.75 95.32 303.75 113.25 337.94 113.25 337.94 125.02 303.75 125.02 303.75 152.92 290.2 152.92 290.2 83.56"/><polygon class="cls-26" points="400.82 152.92 351.99 152.92 351.99 83.56 365.54 83.56 365.54 141.06 400.82 141.06 400.82 152.92"/><rect class="cls-26" x="412.38" y="83.56" width="13.55" height="69.37"/><polygon class="cls-26" points="461.22 116.84 438.1 83.56 454.34 83.56 469.99 106.58 485.14 83.56 501.19 83.56 477.86 116.74 503.78 152.92 487.43 152.92 469.09 127.01 451.45 152.92 435.51 152.92 461.22 116.84"/><polygon class="cls-27" points="81.01 82.58 94.6 82.58 94.6 110.76 122.49 82.58 138.88 82.58 105.8 115.86 140.58 152.14 122.89 152.14 94.6 122.55 94.6 152.14 81.01 152.14 81.01 82.58"/><polygon class="cls-27" points="149.27 82.58 199.44 82.58 199.44 94.47 162.86 94.47 162.86 110.76 198.24 110.76 198.24 122.65 162.86 122.65 162.86 140.24 199.94 140.24 199.94 152.14 149.27 152.14 149.27 82.58"/><polygon class="cls-27" points="213.53 82.58 226.73 82.58 261.21 131.35 261.21 82.58 274.4 82.58 274.4 152.14 261.21 152.14 226.73 103.36 226.73 152.14 213.53 152.14 213.53 82.58"/><polygon class="cls-27" points="290.19 82.58 339.26 82.58 339.26 94.37 303.78 94.37 303.78 112.36 338.06 112.36 338.06 124.15 303.78 124.15 303.78 152.14 290.19 152.14 290.19 82.58"/><polygon class="cls-27" points="401.13 152.14 352.16 152.14 352.16 82.58 365.75 82.58 365.75 140.24 401.13 140.24 401.13 152.14"/><rect class="cls-27" x="412.72" y="82.58" width="13.59" height="69.56"/><polygon class="cls-27" points="461.69 115.96 438.51 82.58 454.8 82.58 470.49 105.66 485.68 82.58 501.77 82.58 478.38 115.86 504.37 152.14 487.98 152.14 469.59 126.15 451.9 152.14 435.91 152.14 461.69 115.96"/><polygon class="cls-28" points="80.42 81.6 94.05 81.6 94.05 109.86 122.01 81.6 138.45 81.6 105.27 114.97 140.15 151.35 122.41 151.35 94.05 121.69 94.05 151.35 80.42 151.35 80.42 81.6"/><polygon class="cls-28" points="148.87 81.6 199.18 81.6 199.18 93.52 162.5 93.52 162.5 109.86 197.98 109.86 197.98 121.79 162.5 121.79 162.5 139.43 199.68 139.43 199.68 151.35 148.87 151.35 148.87 81.6"/><polygon class="cls-28" points="213.31 81.6 226.54 81.6 261.12 130.5 261.12 81.6 274.35 81.6 274.35 151.35 261.12 151.35 226.54 102.44 226.54 151.35 213.31 151.35 213.31 81.6"/><polygon class="cls-28" points="290.18 81.6 339.39 81.6 339.39 93.42 303.81 93.42 303.81 111.46 338.19 111.46 338.19 123.29 303.81 123.29 303.81 151.35 290.18 151.35 290.18 81.6"/><polygon class="cls-28" points="401.43 151.35 352.32 151.35 352.32 81.6 365.95 81.6 365.95 139.43 401.43 139.43 401.43 151.35"/><rect class="cls-28" x="413.06" y="81.6" width="13.63" height="69.75"/><polygon class="cls-28" points="462.17 115.07 438.91 81.6 455.25 81.6 470.98 104.75 486.22 81.6 502.35 81.6 478.9 114.97 504.96 151.35 488.52 151.35 470.08 125.29 452.34 151.35 436.31 151.35 462.17 115.07"/><polygon class="cls-29" points="79.83 80.62 93.5 80.62 93.5 108.96 121.54 80.62 138.02 80.62 104.75 114.08 139.73 150.57 121.94 150.57 93.5 120.82 93.5 150.57 79.83 150.57 79.83 80.62"/><polygon class="cls-29" points="148.47 80.62 198.92 80.62 198.92 92.58 162.14 92.58 162.14 108.96 197.72 108.96 197.72 120.92 162.14 120.92 162.14 138.61 199.43 138.61 199.43 150.57 148.47 150.57 148.47 80.62"/><polygon class="cls-29" points="213.09 80.62 226.36 80.62 261.03 129.66 261.03 80.62 274.3 80.62 274.3 150.57 261.03 150.57 226.36 101.52 226.36 150.57 213.09 150.57 213.09 80.62"/><polygon class="cls-29" points="290.18 80.62 339.52 80.62 339.52 92.48 303.85 92.48 303.85 110.57 338.32 110.57 338.32 122.43 303.85 122.43 303.85 150.57 290.18 150.57 290.18 80.62"/><polygon class="cls-29" points="401.73 150.57 352.49 150.57 352.49 80.62 366.16 80.62 366.16 138.61 401.73 138.61 401.73 150.57"/><rect class="cls-29" x="413.39" y="80.62" width="13.67" height="69.95"/><polygon class="cls-29" points="462.64 114.19 439.32 80.62 455.7 80.62 471.48 103.83 486.76 80.62 502.94 80.62 479.42 114.08 505.55 150.57 489.07 150.57 470.58 124.44 452.79 150.57 436.71 150.57 462.64 114.19"/><polygon class="cls-30" points="79.23 79.64 92.94 79.64 92.94 108.06 121.06 79.64 137.59 79.64 104.23 113.2 139.3 149.78 121.46 149.78 92.94 119.95 92.94 149.78 79.23 149.78 79.23 79.64"/><polygon class="cls-30" points="148.07 79.64 198.66 79.64 198.66 91.63 161.78 91.63 161.78 108.06 197.45 108.06 197.45 120.05 161.78 120.05 161.78 137.79 199.16 137.79 199.16 149.78 148.07 149.78 148.07 79.64"/><polygon class="cls-30" points="212.87 79.64 226.17 79.64 260.94 128.82 260.94 79.64 274.25 79.64 274.25 149.78 260.94 149.78 226.17 100.6 226.17 149.78 212.87 149.78 212.87 79.64"/><polygon class="cls-30" points="290.17 79.64 339.65 79.64 339.65 91.53 303.88 91.53 303.88 109.67 338.44 109.67 338.44 121.56 303.88 121.56 303.88 149.78 290.17 149.78 290.17 79.64"/><polygon class="cls-30" points="402.04 149.78 352.65 149.78 352.65 79.64 366.36 79.64 366.36 137.79 402.04 137.79 402.04 149.78"/><rect class="cls-30" x="413.73" y="79.64" width="13.71" height="70.14"/><polygon class="cls-30" points="463.11 113.3 439.73 79.64 456.15 79.64 471.98 102.92 487.3 79.64 503.52 79.64 479.94 113.2 506.14 149.78 489.61 149.78 471.07 123.58 453.23 149.78 437.11 149.78 463.11 113.3"/><polygon class="cls-31" points="78.64 78.66 92.39 78.66 92.39 107.16 120.58 78.66 137.16 78.66 103.71 112.31 138.88 149 120.99 149 92.39 119.08 92.39 149 78.64 149 78.64 78.66"/><polygon class="cls-31" points="147.67 78.66 198.4 78.66 198.4 90.68 161.41 90.68 161.41 107.16 197.19 107.16 197.19 119.18 161.41 119.18 161.41 136.97 198.91 136.97 198.91 149 147.67 149 147.67 78.66"/><polygon class="cls-31" points="212.65 78.66 225.99 78.66 260.86 127.98 260.86 78.66 274.19 78.66 274.19 149 260.86 149 225.99 99.68 225.99 149 212.65 149 212.65 78.66"/><polygon class="cls-31" points="290.16 78.66 339.78 78.66 339.78 90.58 303.91 90.58 303.91 108.77 338.57 108.77 338.57 120.7 303.91 120.7 303.91 149 290.16 149 290.16 78.66"/><polygon class="cls-31" points="402.34 149 352.82 149 352.82 78.66 366.56 78.66 366.56 136.97 402.34 136.97 402.34 149"/><rect class="cls-31" x="414.06" y="78.66" width="13.74" height="70.34"/><polygon class="cls-31" points="463.58 112.41 440.13 78.66 456.61 78.66 472.48 102 487.84 78.66 504.11 78.66 480.46 112.31 506.73 149 490.16 149 471.56 122.72 453.68 149 437.51 149 463.58 112.41"/><polygon class="cls-32" points="78.05 77.68 91.83 77.68 91.83 106.26 120.11 77.68 136.73 77.68 103.19 111.42 138.45 148.21 120.51 148.21 91.83 118.21 91.83 148.21 78.05 148.21 78.05 77.68"/><polygon class="cls-32" points="147.27 77.68 198.14 77.68 198.14 89.74 161.05 89.74 161.05 106.26 196.92 106.26 196.92 118.32 161.05 118.32 161.05 136.15 198.65 136.15 198.65 148.21 147.27 148.21 147.27 77.68"/><polygon class="cls-32" points="212.43 77.68 225.81 77.68 260.77 127.13 260.77 77.68 274.14 77.68 274.14 148.21 260.77 148.21 225.81 98.76 225.81 148.21 212.43 148.21 212.43 77.68"/><polygon class="cls-32" points="290.16 77.68 339.91 77.68 339.91 89.64 303.94 89.64 303.94 107.88 338.7 107.88 338.7 119.84 303.94 119.84 303.94 148.21 290.16 148.21 290.16 77.68"/><polygon class="cls-32" points="402.64 148.21 352.99 148.21 352.99 77.68 366.77 77.68 366.77 136.15 402.64 136.15 402.64 148.21"/><rect class="cls-32" x="414.4" y="77.68" width="13.78" height="70.53"/><polygon class="cls-32" points="464.05 111.53 440.54 77.68 457.06 77.68 472.97 101.09 488.38 77.68 504.69 77.68 480.98 111.42 507.32 148.21 490.71 148.21 472.06 121.86 454.12 148.21 437.91 148.21 464.05 111.53"/><polygon class="cls-33" points="77.46 76.7 91.28 76.7 91.28 105.36 119.63 76.7 136.3 76.7 102.66 110.54 138.03 147.43 120.04 147.43 91.28 117.35 91.28 147.43 77.46 147.43 77.46 76.7"/><polygon class="cls-33" points="146.87 76.7 197.88 76.7 197.88 88.79 160.69 88.79 160.69 105.36 196.66 105.36 196.66 117.45 160.69 117.45 160.69 135.33 198.39 135.33 198.39 147.43 146.87 147.43 146.87 76.7"/><polygon class="cls-33" points="212.21 76.7 225.62 76.7 260.68 126.29 260.68 76.7 274.09 76.7 274.09 147.43 260.68 147.43 225.62 97.84 225.62 147.43 212.21 147.43 212.21 76.7"/><polygon class="cls-33" points="290.15 76.7 340.04 76.7 340.04 88.69 303.97 88.69 303.97 106.98 338.82 106.98 338.82 118.97 303.97 118.97 303.97 147.43 290.15 147.43 290.15 76.7"/><polygon class="cls-33" points="402.95 147.43 353.15 147.43 353.15 76.7 366.97 76.7 366.97 135.33 402.95 135.33 402.95 147.43"/><rect class="cls-33" x="414.73" y="76.7" width="13.82" height="70.73"/><polygon class="cls-33" points="464.53 110.64 440.95 76.7 457.51 76.7 473.47 100.17 488.91 76.7 505.27 76.7 481.5 110.54 507.92 147.43 491.25 147.43 472.55 121 454.57 147.43 438.31 147.43 464.53 110.64"/><path class="cls-34" d="M76.87,75.72H90.73v28.73l28.43-28.73h16.71l-33.73,33.93,35.46,37h-18L90.73,116.48v30.16H76.87Z"/><path class="cls-34" d="M146.47,75.72h51.15V87.85h-37.3v16.6H196.4v12.13H160.32v17.93h37.81v12.13H146.47Z"/><path class="cls-34" d="M212,75.72h13.45l35.15,49.73V75.72H274v70.92H260.59L225.44,96.91v49.73H212Z"/><path class="cls-34" d="M290.14,75.72h50v12H304v18.35H339v12H304v28.53H290.14Z"/><path class="cls-34" d="M403.25,146.64H353.32V75.72h13.86v58.79h36.07Z"/><path class="cls-34" d="M415.07,146.64V75.72h13.86v70.92Z"/><path class="cls-34" d="M465,109.75l-23.64-34H458l16,23.54,15.48-23.54h16.41L482,109.65l26.5,37H491.8l-18.75-26.49-18,26.49h-16.3Z"/><path class="cls-35" d="M76.87,75.72H90.73v28.73l28.43-28.73h16.71l-33.73,33.93,35.46,37h-18L90.73,116.48v30.16H76.87Z"/><path class="cls-35" d="M146.47,75.72h51.15V87.85h-37.3v16.6H196.4v12.13H160.32v17.93h37.81v12.13H146.47Z"/><path class="cls-35" d="M212,75.72h13.45l35.15,49.73V75.72H274v70.92H260.59L225.44,96.91v49.73H212Z"/><path class="cls-35" d="M290.14,75.72h50v12H304v18.35H339v12H304v28.53H290.14Z"/><path class="cls-35" d="M403.25,146.64H353.32V75.72h13.86v58.79h36.07Z"/><path class="cls-35" d="M415.07,146.64V75.72h13.86v70.92Z"/><path class="cls-35" d="M465,109.75l-23.64-34H458l16,23.54,15.48-23.54h16.41L482,109.65l26.5,37H491.8l-18.75-26.49-18,26.49h-16.3Z"/><!-- Code injected by live-server -->
<script>
	// <![CDATA[  <-- For SVG support
	if ('WebSocket' in window) {
		(function () {
			function refreshCSS() {
				var sheets = [].slice.call(document.getElementsByTagName("link"));
				var head = document.getElementsByTagName("head")[0];
				for (var i = 0; i < sheets.length; ++i) {
					var elem = sheets[i];
					var parent = elem.parentElement || head;
					parent.removeChild(elem);
					var rel = elem.rel;
					if (elem.href && typeof rel != "string" || rel.length == 0 || rel.toLowerCase() == "stylesheet") {
						var url = elem.href.replace(/(&|\?)_cacheOverride=\d+/, '');
						elem.href = url + (url.indexOf('?') >= 0 ? '&' : '?') + '_cacheOverride=' + (new Date().valueOf());
					}
					parent.appendChild(elem);
				}
			}
			var protocol = window.location.protocol === 'http:' ? 'ws://' : 'wss://';
			var address = protocol + window.location.host + window.location.pathname + '/ws';
			var socket = new WebSocket(address);
			socket.onmessage = function (msg) {
				if (msg.data == 'reload') window.location.reload();
				else if (msg.data == 'refreshcss') refreshCSS();
			};
			if (sessionStorage && !sessionStorage.getItem('IsThisFirstTime_Log_From_LiveServer')) {
				console.log('Live reload enabled.');
				sessionStorage.setItem('IsThisFirstTime_Log_From_LiveServer', true);
			}
		})();
	}
	else {
		console.error('Upgrade your browser. This Browser is NOT supported WebSocket for Live-Reloading.');
	}
	// ]]>
</script>
</svg>